<svg width="320" height="130" fill="none" xmlns="http://www.w3.org/2000/svg"><path fill="#516D2B" stroke="#000" stroke-width="2" d="M29.8 46.14l9.745-2.249 13.047 56.514-9.744 2.25zM54.985 48.537l9.744-2.25 4.049 17.54-9.744 2.249z"/><path fill="#516D2B" stroke="#000" stroke-width="2" d="M59.032 39.393l2.25 9.744-29.232 6.748-2.25-9.744zM64.43 62.778l2.25 9.744-29.231 6.748-2.25-9.743z"/><path fill="#516D2B" d="M31 46.891l7.795-1.8 12.597 54.565-7.795 1.8zM56.185 49.287l7.795-1.8 3.6 15.59-7.796 1.8z"/><path fill="#516D2B" d="M58.283 40.592l1.8 7.795L32.8 54.685 31 46.89zM63.681 63.977l1.8 7.795-27.283 6.298-1.8-7.794z"/><path fill="#516D2B" stroke="#000" stroke-width="2" d="M92.818 48.3l9.925-1.219 1.22 9.926-9.926 1.218z"/><path fill="#516D2B" stroke="#000" stroke-width="2" d="M94.82 39.995l9.926-1.219 1.218 9.926-9.925 1.219zM106.713 46.594l9.925-1.219 1.22 9.926-9.926 1.218z"/><path fill="#516D2B" stroke="#000" stroke-width="2" d="M102.761 39.02l9.926-1.219 1.218 9.926-9.925 1.218z"/><path fill="#516D2B" stroke="#000" stroke-width="2" d="M97.816 31.567l9.925-1.219 1.22 9.926-9.926 1.218zM101.715 63.328l9.925-1.219 1.22 9.926-9.926 1.218z"/><path fill="#516D2B" stroke="#000" stroke-width="2" d="M92.8 56.363l9.925-1.219 2.194 17.866-9.925 1.219zM108.681 54.413l9.925-1.219L120.8 71.06l-9.925 1.219z"/><path fill="#516D2B" stroke="#000" stroke-width="2" d="M90.78 72.731l9.925-1.219 2.194 17.866-9.925 1.219zM114.601 69.806l9.925-1.219 2.194 17.866-9.925 1.219z"/><path fill="#516D2B" d="M93.932 49.171l7.94-.975.975 7.94-7.94.975zM95.935 40.865l7.94-.975.975 7.94-7.94.975zM107.828 47.465l7.94-.975.975 7.94-7.94.975-.975-7.94z"/><path fill="#516D2B" d="M103.875 39.89l7.94-.975.975 7.94-7.94.975zM98.93 32.437l7.94-.975.975 7.94-7.94.975zM102.83 64.199l7.94-.975.975 7.94-7.94.975z"/><path fill="#516D2B" d="M93.915 57.233l7.94-.975 1.95 15.88-7.94.976zM109.795 55.283l7.94-.975 1.95 15.88-7.94.976zM91.894 73.602l7.94-.975 1.95 15.88-7.94.976zM115.715 70.677l7.94-.975 1.95 15.88-7.94.976z"/><path fill="#516D2B" stroke="#000" stroke-width="2" d="M168.02 43h10v26h-10z"/><path fill="#516D2B" stroke="#000" stroke-width="2" d="M164.02 35h10v10h-10zM164.02 67h10v10h-10z"/><path fill="#516D2B" stroke="#000" stroke-width="2" d="M170.02 27v10h-26V27zM170.02 75v10h-26V75z"/><path fill="#516D2B" stroke="#000" stroke-width="2" d="M144.02 27h10v58h-10z"/><path fill="#516D2B" d="M169.02 44h8v24h-8zM165.02 36h8v8h-8zM165.02 68h8v8h-8zM169.02 28v8h-24v-8zM169.02 76v8h-24v-8z"/><path fill="#516D2B" d="M145.02 28h8v56h-8z"/><path fill="#516D2B" stroke="#000" stroke-width="2" d="M223.844 46.691l9.925 1.219-3.168 25.806-9.926-1.219z"/><path fill="#516D2B" stroke="#000" stroke-width="2" d="M220.849 38.263l9.926 1.219-1.22 9.925-9.925-1.219zM216.949 70.025l9.925 1.219-1.218 9.925-9.926-1.219z"/><path fill="#516D2B" stroke="#000" stroke-width="2" d="M227.78 31.054l-1.22 9.926-25.806-3.169 1.219-9.925zM221.93 78.696l-1.22 9.926-25.805-3.169 1.218-9.925z"/><path fill="#516D2B" stroke="#000" stroke-width="2" d="M201.973 27.886l9.925 1.219-7.068 57.567-9.925-1.218z"/><path fill="#516D2B" d="M224.715 47.806l7.94.975-2.925 23.821-7.94-.975zM221.72 39.378l7.94.975-.975 7.94-7.94-.975z"/><path fill="#516D2B" d="M217.82 71.139l7.94.975-.975 7.94-7.94-.975zM226.665 31.925l-.975 7.94-23.821-2.925.975-7.94zM220.815 79.567l-.975 7.94-23.821-2.924.975-7.94z"/><path fill="#516D2B" d="M202.844 29l7.94.975-6.824 55.583-7.94-.975z"/><path fill="#516D2B" stroke="#000" stroke-width="2" d="M259.274 53.568l9.744 2.25-2.25 9.743-9.744-2.25z"/><path fill="#516D2B" stroke="#000" stroke-width="2" d="M263.997 46.448l9.744 2.25-2.25 9.743-9.744-2.25zM272.915 56.717l9.744 2.25-2.25 9.743-9.743-2.25z"/><path fill="#516D2B" stroke="#000" stroke-width="2" d="M271.792 48.247l9.744 2.25-2.25 9.743-9.743-2.25z"/><path fill="#516D2B" stroke="#000" stroke-width="2" d="M269.694 39.553l9.744 2.25-2.25 9.743-9.744-2.25zM262.495 70.732l9.744 2.25-2.25 9.743-9.743-2.25z"/><path fill="#516D2B" stroke="#000" stroke-width="2" d="M256.5 61.138l9.744 2.25-4.05 17.538-9.743-2.25zM272.09 64.737l9.744 2.25-4.05 17.538-9.743-2.25z"/><path fill="#516D2B" stroke="#000" stroke-width="2" d="M249.004 75.828l9.744 2.25-4.05 17.538-9.743-2.25zM272.388 81.227l9.744 2.25-4.05 17.538-9.743-2.25z"/><path fill="#516D2B" d="M260.024 54.767l7.795 1.8-1.8 7.795-7.795-1.8z"/><path fill="#516D2B" d="M264.746 47.647l7.795 1.8-1.8 7.795-7.795-1.8zM273.665 57.916l7.795 1.8-1.8 7.795-7.795-1.8 1.8-7.795z"/><path fill="#516D2B" d="M272.54 49.447l7.796 1.8-1.8 7.795-7.795-1.8z"/><path fill="#516D2B" d="M270.443 40.752l7.795 1.8-1.8 7.795-7.795-1.8zM263.245 71.932l7.795 1.8-1.8 7.795-7.795-1.8z"/><path fill="#516D2B" d="M257.25 62.337l7.795 1.8-3.6 15.59-7.794-1.8zM272.84 65.936l7.795 1.8-3.6 15.59-7.794-1.8z"/><path fill="#516D2B" d="M249.753 77.027l7.795 1.8-3.6 15.59-7.794-1.8zM273.138 82.426l7.795 1.8-3.6 15.59-7.794-1.8z"/></svg>